{
    "asset": {
        "generator": "COLLADA2GLTF",
        "version": "2.0"
    },
    "scenes": [
        {
            "nodes": [
                0
            ]
        }
    ],
    "scene": 0,
    "nodes": [
        {
            "children": [
                1
            ],
            "name": "Y_UP"
        },
        {
            "children": [
                2
            ],
            "translation": [
                -23.249698638916017,
                55.63629913330078,
                5.216690063476563
            ],
            "rotation": [
                -0.0,
                -0.0,
                -0.0,
                -1.0
            ]
        },
        {
            "children": [
                3
            ],
            "rotation": [
                -0.0,
                0.7064277529716492,
                -0.0,
                -0.7077851295471191
            ]
        },
        {
            "children": [
                4
            ],
            "rotation": [
                0.6945868134498596,
                -0.0,
                -0.0,
                -0.7194089293479919
            ]
        },
        {
            "rotation": [
                0.0,
                0.0,
                1.0,
                -4.4896593387466768e-11
            ],
            "camera": 0,
            "name": "AnimatedPSRcam"
        }
    ],
    "cameras": [
        {
            "perspective": {
                "yfov": 1.2363924980163577,
                "zfar": 40.0,
                "znear": 0.0010000000474974514
            },
            "type": "perspective",
            "name": "AnimatedPSRcam"
        }
    ],
    "animations": [
        {
            "channels": [
                {
                    "sampler": 0,
                    "target": {
                        "node": 1,
                        "path": "translation"
                    }
                },
                {
                    "sampler": 1,
                    "target": {
                        "node": 2,
                        "path": "rotation"
                    }
                },
                {
                    "sampler": 2,
                    "target": {
                        "node": 3,
                        "path": "rotation"
                    }
                },
                {
                    "sampler": 3,
                    "target": {
                        "node": 4,
                        "path": "rotation"
                    }
                }
            ],
            "samplers": [
                {
                    "input": 0,
                    "interpolation": "LINEAR",
                    "output": 1
                },
                {
                    "input": 2,
                    "interpolation": "LINEAR",
                    "output": 3
                },
                {
                    "input": 4,
                    "interpolation": "LINEAR",
                    "output": 5
                },
                {
                    "input": 6,
                    "interpolation": "LINEAR",
                    "output": 7
                }
            ]
        }
    ],
    "accessors": [
        {
            "bufferView": 0,
            "byteOffset": 0,
            "componentType": 5126,
            "count": 4,
            "max": [
                8.0
            ],
            "min": [
                0.0
            ],
            "type": "SCALAR"
        },
        {
            "bufferView": 1,
            "byteOffset": 0,
            "componentType": 5126,
            "count": 4,
            "max": [
                10.623199462890624,
                55.63629913330078,
                30.80349731445313
            ],
            "min": [
                -23.249698638916017,
                -2.5359201431274416,
                5.192299842834473
            ],
            "type": "VEC3"
        },
        {
            "bufferView": 0,
            "byteOffset": 16,
            "componentType": 5126,
            "count": 4,
            "max": [
                8.0
            ],
            "min": [
                0.0
            ],
            "type": "SCALAR"
        },
        {
            "bufferView": 2,
            "byteOffset": 0,
            "componentType": 5126,
            "count": 4,
            "max": [
                -0.0,
                0.7077853083610535,
                -0.0,
                0.9018514752388
            ],
            "min": [
                -0.0,
                0.43204620480537417,
                -0.0,
                0.7064275741577148
            ],
            "type": "VEC4"
        },
        {
            "bufferView": 0,
            "byteOffset": 32,
            "componentType": 5126,
            "count": 4,
            "max": [
                8.0
            ],
            "min": [
                0.0
            ],
            "type": "SCALAR"
        },
        {
            "bufferView": 2,
            "byteOffset": 64,
            "componentType": 5126,
            "count": 4,
            "max": [
                0.7194088697433472,
                0.0,
                0.0,
                0.98452228307724
            ],
            "min": [
                -0.18209651112556456,
                0.0,
                0.0,
                0.6945868134498596
            ],
            "type": "VEC4"
        },
        {
            "bufferView": 0,
            "byteOffset": 48,
            "componentType": 5126,
            "count": 4,
            "max": [
                8.0
            ],
            "min": [
                0.0
            ],
            "type": "SCALAR"
        },
        {
            "bufferView": 2,
            "byteOffset": 128,
            "componentType": 5126,
            "count": 4,
            "max": [
                0.0,
                0.0,
                0.0,
                1.0
            ],
            "min": [
                0.0,
                0.0,
                0.0,
                1.0
            ],
            "type": "VEC4"
        }
    ],
    "bufferViews": [
        {
            "buffer": 0,
            "byteOffset": 240,
            "byteLength": 64
        },
        {
            "buffer": 0,
            "byteOffset": 192,
            "byteLength": 48
        },
        {
            "buffer": 0,
            "byteOffset": 0,
            "byteLength": 192
        }
    ],
    "buffers": [
        {
            "byteLength": 304,
            "uri": "data:application/octet-stream;base64,"
        }
    ]
}
