{
    "asset": {
        "generator": "COLLADA2GLTF",
        "version": "2.0"
    },
    "scenes": [
        {
            "nodes": [
                0
            ]
        }
    ],
    "scene": 0,
    "nodes": [
        {
            "children": [
                1
            ],
            "name": "Y_UP"
        },
        {
            "children": [
                2
            ],
            "translation": [
                11.682700157165528,
                -0.01537609938532114,
                -19.57209968566895
            ],
            "rotation": [
                -0.0,
                -0.0,
                -0.0,
                -1.0
            ]
        },
        {
            "children": [
                3
            ],
            "rotation": [
                0.0,
                0.9625239372253418,
                0.0,
                0.2711968123912812
            ]
        },
        {
            "children": [
                4
            ],
            "rotation": [
                -0.04120027273893356,
                -0.0,
                -0.0,
                -0.9991509318351746
            ]
        },
        {
            "children": [
                5
            ],
            "rotation": [
                -0.0,
                -0.0,
                0.008279092609882355,
                -0.9999657273292542
            ]
        },
        {
            "mesh": 0,
            "rotation": [
                -0.0,
                -0.0,
                -0.0,
                -1.0
            ],
            "name": "Cube"
        }
    ],
    "meshes": [
        {
            "primitives": [
                {
                    "attributes": {
                        "NORMAL": 1,
                        "POSITION": 2,
                        "TEXCOORD_0": 3
                    },
                    "indices": 0,
                    "mode": 4
                }
            ],
            "name": "ID102"
        }
    ],
    "animations": [
        {
            "channels": [
                {
                    "sampler": 0,
                    "target": {
                        "node": 1,
                        "path": "translation"
                    }
                },
                {
                    "sampler": 1,
                    "target": {
                        "node": 2,
                        "path": "rotation"
                    }
                },
                {
                    "sampler": 2,
                    "target": {
                        "node": 3,
                        "path": "rotation"
                    }
                },
                {
                    "sampler": 3,
                    "target": {
                        "node": 4,
                        "path": "rotation"
                    }
                },
                {
                    "sampler": 4,
                    "target": {
                        "node": 5,
                        "path": "translation"
                    }
                }
            ],
            "samplers": [
                {
                    "input": 4,
                    "interpolation": "LINEAR",
                    "output": 5
                },
                {
                    "input": 6,
                    "interpolation": "LINEAR",
                    "output": 7
                },
                {
                    "input": 8,
                    "interpolation": "LINEAR",
                    "output": 9
                },
                {
                    "input": 10,
                    "interpolation": "LINEAR",
                    "output": 11
                },
                {
                    "input": 12,
                    "interpolation": "LINEAR",
                    "output": 13
                }
            ]
        }
    ],
    "accessors": [
        {
            "bufferView": 0,
            "byteOffset": 0,
            "componentType": 5123,
            "count": 54,
            "max": [
                23
            ],
            "min": [
                0
            ],
            "type": "SCALAR"
        },
        {
            "bufferView": 1,
            "byteOffset": 0,
            "componentType": 5126,
            "count": 24,
            "max": [
                1.0,
                1.0,
                1.0
            ],
            "min": [
                -1.0,
                -1.0,
                -1.0
            ],
            "type": "VEC3"
        },
        {
            "bufferView": 1,
            "byteOffset": 288,
            "componentType": 5126,
            "count": 24,
            "max": [
                1.0,
                1.0,
                1.0
            ],
            "min": [
                -1.0,
                -1.0,
                -1.0
            ],
            "type": "VEC3"
        },
        {
            "bufferView": 2,
            "byteOffset": 0,
            "componentType": 5126,
            "count": 24,
            "max": [
                0.0,
                0.0
            ],
            "min": [
                0.0,
                0.0
            ],
            "type": "VEC2"
        },
        {
            "bufferView": 3,
            "byteOffset": 0,
            "componentType": 5126,
            "count": 3,
            "max": [
                3.0
            ],
            "min": [
                0.0
            ],
            "type": "SCALAR"
        },
        {
            "bufferView": 4,
            "byteOffset": 0,
            "componentType": 5126,
            "count": 3,
            "max": [
                18.24159812927246,
                2.9697201251983644,
                -0.0
            ],
            "min": [
                0.0,
                -0.01537609938532114,
                -19.57209968566895
            ],
            "type": "VEC3"
        },
        {
            "bufferView": 3,
            "byteOffset": 12,
            "componentType": 5126,
            "count": 3,
            "max": [
                3.0
            ],
            "min": [
                0.0
            ],
            "type": "SCALAR"
        },
        {
            "bufferView": 5,
            "byteOffset": 0,
            "componentType": 5126,
            "count": 3,
            "max": [
                0.0,
                0.9625239372253418,
                0.0,
                1.0
            ],
            "min": [
                0.0,
                0.0,
                0.0,
                0.2711968123912812
            ],
            "type": "VEC4"
        },
        {
            "bufferView": 3,
            "byteOffset": 24,
            "componentType": 5126,
            "count": 3,
            "max": [
                3.0
            ],
            "min": [
                0.0
            ],
            "type": "SCALAR"
        },
        {
            "bufferView": 5,
            "byteOffset": 48,
            "componentType": 5126,
            "count": 3,
            "max": [
                0.07122699916362763,
                -0.0,
                -0.0,
                -0.997460126876831
            ],
            "min": [
                -0.041200269013643268,
                -0.0,
                -0.0,
                -1.0
            ],
            "type": "VEC4"
        },
        {
            "bufferView": 3,
            "byteOffset": 36,
            "componentType": 5126,
            "count": 3,
            "max": [
                3.0
            ],
            "min": [
                0.0
            ],
            "type": "SCALAR"
        },
        {
            "bufferView": 5,
            "byteOffset": 96,
            "componentType": 5126,
            "count": 3,
            "max": [
                0.0,
                0.0,
                -0.0,
                -0.9999657273292542
            ],
            "min": [
                0.0,
                0.0,
                -0.008279092609882355,
                -1.0
            ],
            "type": "VEC4"
        },
        {
            "bufferView": 3,
            "byteOffset": 48,
            "componentType": 5126,
            "count": 3,
            "max": [
                3.0
            ],
            "min": [
                0.0
            ],
            "type": "SCALAR"
        },
        {
            "bufferView": 4,
            "byteOffset": 36,
            "componentType": 5126,
            "count": 3,
            "max": [
                0.009999999776482582,
                0.009999999776482582,
                0.009999999776482582
            ],
            "min": [
                0.009999999776482582,
                0.009999999776482582,
                0.009999999776482582
            ],
            "type": "VEC3"
        }
    ],
    "bufferViews": [
        {
            "buffer": 0,
            "byteOffset": 1044,
            "byteLength": 108,
            "target": 34963
        },
        {
            "buffer": 0,
            "byteOffset": 216,
            "byteLength": 576,
            "byteStride": 12,
            "target": 34962
        },
        {
            "buffer": 0,
            "byteOffset": 792,
            "byteLength": 192,
            "byteStride": 8,
            "target": 34962
        },
        {
            "buffer": 0,
            "byteOffset": 984,
            "byteLength": 60
        },
        {
            "buffer": 0,
            "byteOffset": 144,
            "byteLength": 72
        },
        {
            "buffer": 0,
            "byteOffset": 0,
            "byteLength": 144
        }
    ],
    "buffers": [
        {
            "byteLength": 1152,
            "uri": "data:application/octet-stream;base64,"
        }
    ]
}
